<svg width="285" height="314" viewBox="0 0 285 314" fill="none" xmlns="http://www.w3.org/2000/svg">
<path d="M40.9062 266.824L28.6289 267.152C28.5013 266.277 28.1549 265.503 27.5898 264.828C27.0247 264.135 26.2865 263.598 25.375 263.215C24.4818 262.814 23.4427 262.613 22.2578 262.613C20.7083 262.613 19.3867 262.923 18.293 263.543C17.2174 264.163 16.6888 265.001 16.707 266.059C16.6888 266.879 17.0169 267.59 17.6914 268.191C18.3841 268.793 19.6146 269.276 21.3828 269.641L29.4766 271.172C33.6693 271.974 36.7865 273.305 38.8281 275.164C40.888 277.023 41.9271 279.484 41.9453 282.547C41.9271 285.427 41.0703 287.934 39.375 290.066C37.6979 292.199 35.401 293.858 32.4844 295.043C29.5677 296.21 26.2318 296.793 22.4766 296.793C16.4792 296.793 11.7487 295.562 8.28516 293.102C4.83984 290.622 2.87109 287.305 2.37891 283.148L15.5859 282.82C15.8776 284.352 16.6341 285.518 17.8555 286.32C19.0768 287.122 20.6354 287.523 22.5313 287.523C24.2448 287.523 25.6393 287.204 26.7148 286.566C27.7904 285.928 28.3372 285.081 28.3555 284.023C28.3372 283.076 27.918 282.319 27.0977 281.754C26.2773 281.171 24.9922 280.715 23.2422 280.387L15.9141 278.992C11.7031 278.227 8.56771 276.814 6.50781 274.754C4.44792 272.676 3.42708 270.033 3.44531 266.824C3.42708 264.017 4.17448 261.62 5.6875 259.633C7.20052 257.628 9.35156 256.096 12.1406 255.039C14.9297 253.982 18.2201 253.453 22.0117 253.453C27.6992 253.453 32.1836 254.647 35.4648 257.035C38.7461 259.405 40.5599 262.668 40.9062 266.824ZM68.1611 296.793C63.7679 296.793 59.9762 295.927 56.7861 294.195C53.6143 292.445 51.1715 289.957 49.458 286.73C47.7627 283.486 46.915 279.63 46.915 275.164C46.915 270.826 47.7718 267.034 49.4854 263.789C51.1989 260.526 53.6143 257.992 56.7314 256.187C59.8486 254.365 63.5218 253.453 67.751 253.453C70.7406 253.453 73.4749 253.918 75.9541 254.848C78.4333 255.777 80.5752 257.154 82.3799 258.977C84.1846 260.799 85.5882 263.051 86.5908 265.73C87.5934 268.392 88.0947 271.445 88.0947 274.891V278.227H51.5908V270.461H75.6533C75.6351 269.039 75.2979 267.772 74.6416 266.66C73.9854 265.548 73.083 264.682 71.9346 264.062C70.8044 263.424 69.501 263.105 68.0244 263.105C66.5296 263.105 65.1898 263.443 64.0049 264.117C62.82 264.773 61.8812 265.676 61.1885 266.824C60.4958 267.954 60.1312 269.24 60.0947 270.68V278.582C60.0947 280.296 60.432 281.799 61.1064 283.094C61.7809 284.37 62.738 285.363 63.9775 286.074C65.2171 286.785 66.6937 287.141 68.4072 287.141C69.5921 287.141 70.6676 286.977 71.6338 286.648C72.5999 286.32 73.4294 285.837 74.1221 285.199C74.8148 284.561 75.3343 283.777 75.6807 282.848L87.958 283.203C87.4476 285.956 86.3265 288.353 84.5947 290.395C82.8812 292.418 80.6299 293.995 77.8408 295.125C75.0518 296.237 71.8252 296.793 68.1611 296.793ZM94.9238 296V254H107.912V261.656H108.35C109.115 258.885 110.364 256.826 112.096 255.477C113.827 254.109 115.842 253.426 118.139 253.426C118.758 253.426 119.396 253.471 120.053 253.562C120.709 253.635 121.32 253.754 121.885 253.918V265.539C121.247 265.32 120.408 265.147 119.369 265.02C118.348 264.892 117.437 264.828 116.635 264.828C115.049 264.828 113.618 265.184 112.342 265.895C111.084 266.587 110.09 267.562 109.361 268.82C108.65 270.06 108.295 271.518 108.295 273.195V296H94.9238ZM169.354 254L154.943 296H139.631L125.248 254H139.33L147.068 282.93H147.506L155.271 254H169.354ZM174.48 296V254H187.852V296H174.48ZM181.18 249.105C179.302 249.105 177.689 248.486 176.34 247.246C174.991 245.988 174.316 244.475 174.316 242.707C174.316 240.957 174.991 239.462 176.34 238.223C177.689 236.965 179.302 236.336 181.18 236.336C183.076 236.336 184.689 236.965 186.02 238.223C187.368 239.462 188.043 240.957 188.043 242.707C188.043 244.475 187.368 245.988 186.02 247.246C184.689 248.486 183.076 249.105 181.18 249.105ZM215.968 296.793C211.538 296.793 207.737 295.882 204.565 294.059C201.412 292.236 198.987 289.702 197.292 286.457C195.597 283.194 194.749 279.421 194.749 275.137C194.749 270.835 195.597 267.061 197.292 263.816C199.006 260.553 201.439 258.01 204.593 256.187C207.765 254.365 211.547 253.453 215.94 253.453C219.823 253.453 223.205 254.155 226.085 255.559C228.983 256.962 231.244 258.949 232.866 261.52C234.507 264.072 235.373 267.07 235.464 270.516H222.968C222.713 268.365 221.983 266.678 220.78 265.457C219.595 264.236 218.046 263.625 216.132 263.625C214.582 263.625 213.224 264.062 212.058 264.937C210.891 265.794 209.979 267.07 209.323 268.766C208.685 270.443 208.366 272.521 208.366 275C208.366 277.479 208.685 279.576 209.323 281.289C209.979 282.984 210.891 284.27 212.058 285.145C213.224 286.001 214.582 286.43 216.132 286.43C217.371 286.43 218.465 286.165 219.413 285.637C220.379 285.108 221.172 284.333 221.792 283.312C222.412 282.273 222.804 281.016 222.968 279.539H235.464C235.336 283.003 234.47 286.029 232.866 288.617C231.28 291.206 229.047 293.22 226.167 294.66C223.305 296.082 219.905 296.793 215.968 296.793ZM261.939 296.793C257.546 296.793 253.755 295.927 250.564 294.195C247.393 292.445 244.95 289.957 243.236 286.73C241.541 283.486 240.693 279.63 240.693 275.164C240.693 270.826 241.55 267.034 243.264 263.789C244.977 260.526 247.393 257.992 250.51 256.187C253.627 254.365 257.3 253.453 261.529 253.453C264.519 253.453 267.253 253.918 269.732 254.848C272.212 255.777 274.354 257.154 276.158 258.977C277.963 260.799 279.367 263.051 280.369 265.73C281.372 268.392 281.873 271.445 281.873 274.891V278.227H245.369V270.461H269.432C269.413 269.039 269.076 267.772 268.42 266.66C267.764 265.548 266.861 264.682 265.713 264.062C264.583 263.424 263.279 263.105 261.803 263.105C260.308 263.105 258.968 263.443 257.783 264.117C256.598 264.773 255.66 265.676 254.967 266.824C254.274 267.954 253.91 269.24 253.873 270.68V278.582C253.873 280.296 254.21 281.799 254.885 283.094C255.559 284.37 256.516 285.363 257.756 286.074C258.995 286.785 260.472 287.141 262.186 287.141C263.37 287.141 264.446 286.977 265.412 286.648C266.378 286.32 267.208 285.837 267.9 285.199C268.593 284.561 269.113 283.777 269.459 282.848L281.736 283.203C281.226 285.956 280.105 288.353 278.373 290.395C276.66 292.418 274.408 293.995 271.619 295.125C268.83 296.237 265.604 296.793 261.939 296.793Z" fill="white"/>
<g clip-path="url(#clip0_3_75)">
<mask id="mask0_3_75" style="mask-type:luminance" maskUnits="userSpaceOnUse" x="51" y="0" width="183" height="234">
<path d="M234 0H51V234H234V0Z" fill="white"/>
</mask>
<g mask="url(#mask0_3_75)">
<path d="M230.436 9.16263C229.055 6.2918 226.067 4.24611 219.373 3.59286C188.456 0.567292 173.985 0 141.793 0H141.776C109.566 0 95.5319 0.515721 64.1435 3.59286C57.4324 4.24611 54.4438 6.2918 53.0632 9.17982C52.0495 11.3115 51.9097 13.9073 51.7699 16.7266C50.0746 51.4001 51.1057 145.743 55.7895 198.828C56.3313 204.965 56.6284 211.48 57.5372 216.878C58.9179 225.044 62.3783 227.365 68.9671 228.706C80.4668 231.06 103.064 232.934 141.723 232.934C180.382 232.934 203.032 231.078 214.549 228.722C221.138 227.381 224.599 225.078 225.979 216.895C226.888 211.497 227.168 204.982 227.727 198.845C232.411 145.76 233.441 51.4174 231.746 16.7438C231.606 13.9073 231.467 11.3115 230.436 9.16263ZM59.8616 20.5601C60.0714 16.2968 59.4072 13.2712 62.9026 10.9333L113.883 19.9756C115.63 18.9958 140.989 18.9786 141.776 18.9786C142.562 18.9786 167.921 18.9958 169.669 19.9756L220.229 10.8645C223.742 13.1853 223.148 16.2968 223.358 20.5601C223.882 31.2871 224.126 47.9449 224.092 67.3015L224.074 67.628L183.615 70.4131C173.566 71.3415 172.395 73.8687 172.36 78.4241C172.36 78.4241 171.888 109.642 171.608 120.61C171.224 136.202 169.861 159.444 169.843 160.217C169.721 163.948 167.17 166.681 163.552 166.973C163.552 166.973 150.654 167.438 141.81 167.352C141.741 167.352 141.688 167.352 141.618 167.352C141.549 167.352 141.496 167.352 141.426 167.352C132.583 167.42 119.685 166.973 119.685 166.973C116.067 166.664 113.498 163.948 113.393 160.217C113.376 159.444 112.012 136.202 111.628 120.61C111.348 109.642 110.877 78.4241 110.877 78.4241C110.859 73.8687 109.67 71.3415 99.6214 70.4131L59.1276 67.2501C59.0927 47.9105 59.3373 31.2699 59.8616 20.5601ZM141.601 174.21H141.793L161.961 174.004C177.691 174.09 176.135 172.767 178.232 159.152C178.757 155.748 186.044 79.1286 186.044 79.1286C186.289 77.3584 187.285 76.6019 188.701 76.43L222.938 72.012C223.567 71.926 224.126 72.4245 224.109 73.0604C224.109 73.0604 221.313 199.859 217.695 215.279C216.908 218.597 216.035 219.371 213.099 220.058C213.099 220.058 195.849 224.064 141.636 224.116C87.3877 224.046 70.138 220.041 70.138 220.041C67.2019 219.354 66.3281 218.597 65.5416 215.262C61.9239 199.859 59.1276 73.0604 59.1276 73.0604C59.1101 72.4418 59.6694 71.9433 60.2985 72.012L94.5357 76.43C95.9513 76.6192 96.9475 77.3584 97.1922 79.1286C97.1922 79.1286 104.48 155.748 105.004 159.152C107.101 172.749 105.546 174.09 121.275 174.004L141.443 174.21H141.601Z" fill="white"/>
<path d="M126.621 188.508C126.551 188.406 126.429 188.336 126.306 188.336H120.801C120.661 188.336 120.556 188.406 120.469 188.508L109.021 205.235C108.934 205.355 109.021 205.527 109.179 205.527H114.526C114.649 205.527 114.771 205.459 114.841 205.355L117.795 201.058C117.935 200.851 118.179 200.731 118.424 200.731H128.665C128.928 200.731 129.155 200.851 129.295 201.058L132.248 205.355C132.318 205.459 132.44 205.527 132.563 205.527H137.911C138.068 205.527 138.155 205.355 138.068 205.235L126.621 188.508ZM126.516 198.032H120.591C120.294 198.032 120.102 197.706 120.277 197.448L123.23 193.116C123.387 192.892 123.702 192.892 123.859 193.116L126.83 197.448C126.988 197.706 126.813 198.032 126.516 198.032Z" fill="white"/>
<path d="M108.796 188.336H81.3047C81.1474 188.336 81.06 188.508 81.1474 188.629L82.563 190.709C82.7029 190.915 82.9475 191.036 83.1922 191.036H92.018C92.2277 191.036 92.4025 191.208 92.4025 191.414V205.321C92.4025 205.441 92.4899 205.527 92.6122 205.527H97.4184C97.5407 205.527 97.6281 205.441 97.6281 205.321V191.414C97.6281 191.208 97.8029 191.036 98.0125 191.036H106.856C107.118 191.036 107.345 190.915 107.485 190.709L108.901 188.629C109.04 188.508 108.953 188.336 108.796 188.336Z" fill="white"/>
<path d="M170.346 188.336H165.54C165.418 188.336 165.33 188.44 165.33 188.543V200.577C165.33 200.731 165.155 200.817 165.016 200.731L149.129 188.508C148.989 188.406 148.815 188.336 148.622 188.336H143.886C143.764 188.336 143.676 188.44 143.676 188.543V205.321C143.676 205.441 143.764 205.527 143.886 205.527H148.693C148.815 205.527 148.902 205.441 148.902 205.321V193.288C148.902 193.133 149.077 193.047 149.217 193.133L165.103 205.355C165.243 205.459 165.418 205.527 165.61 205.527H170.346C170.468 205.527 170.556 205.441 170.556 205.321V188.543C170.556 188.44 170.468 188.336 170.346 188.336Z" fill="white"/>
<path d="M203.502 205.324L192.003 195.989C191.898 195.903 191.898 195.731 192.02 195.645L203.485 188.563C203.59 188.511 203.537 188.356 203.415 188.356H197.543C197.333 188.356 197.141 188.408 196.966 188.528L184.47 196.247C184.33 196.333 184.138 196.23 184.138 196.075V188.58C184.138 188.46 184.051 188.374 183.928 188.374H179.122C179 188.374 178.912 188.46 178.912 188.58V205.358C178.912 205.478 179.017 205.564 179.122 205.564H183.928C184.051 205.564 184.138 205.478 184.138 205.358V200.751C184.138 200.613 184.208 200.493 184.33 200.425L188.403 197.915C188.542 197.829 188.735 197.846 188.857 197.949L197.962 205.341C198.154 205.496 198.399 205.582 198.661 205.582H203.415C203.555 205.53 203.607 205.392 203.502 205.324Z" fill="white"/>
</g>
</g>
<defs>
<clipPath id="clip0_3_75">
<rect width="183" height="234" fill="white" transform="translate(51)"/>
</clipPath>
</defs>
</svg>
